<svg xmlns="http://www.w3.org/2000/svg" xmlns:xlink="http://www.w3.org/1999/xlink" width="200" zoomAndPan="magnify" viewBox="0 0 150 37.5" height="50" preserveAspectRatio="xMidYMid meet" version="1.0"><defs><g/><clipPath id="37ee03af30"><path d="M 0.988281 0 L 149.011719 0 L 149.011719 37.007812 L 0.988281 37.007812 Z M 0.988281 0 " clip-rule="nonzero"/></clipPath><clipPath id="71354312e2"><path d="M 14.335938 12.253906 L 39.847656 12.253906 L 39.847656 33.683594 L 14.335938 33.683594 Z M 14.335938 12.253906 " clip-rule="nonzero"/></clipPath><clipPath id="b754102707"><path d="M 39.195312 22.125 L 38.992188 22.257812 L 38.894531 27.34375 C 31.03125 27.859375 23.277344 28.367188 15.496094 28.875 L 15.496094 13.148438 C 18.835938 13.148438 22.082031 13.136719 25.328125 13.15625 C 26.066406 13.160156 26.46875 12.996094 26.230469 12.269531 L 14.421875 12.269531 L 14.421875 31.9375 C 17.984375 31.695312 21.421875 31.457031 24.878906 31.222656 L 24.878906 32.988281 C 24.285156 33.109375 23.753906 33.21875 23.222656 33.328125 L 23.277344 33.59375 C 26.101562 33.496094 28.902344 33.269531 31.699219 33.046875 L 31.691406 32.792969 L 30.15625 32.664062 L 30.15625 30.824219 C 33.402344 30.578125 36.585938 30.339844 39.824219 30.09375 C 39.824219 27.558594 39.839844 25.160156 39.796875 22.765625 C 39.792969 22.550781 39.410156 22.339844 39.199219 22.125 " clip-rule="nonzero"/></clipPath><clipPath id="dbb3b5751f"><path d="M 35.894531 21.566406 L 38.191406 21.566406 L 38.191406 23.734375 L 35.894531 23.734375 Z M 35.894531 21.566406 " clip-rule="nonzero"/></clipPath><clipPath id="7dc6613152"><path d="M 38.082031 22.652344 C 38.082031 23.246094 37.601562 23.722656 37.011719 23.722656 C 36.421875 23.722656 35.9375 23.246094 35.9375 22.652344 C 35.9375 22.0625 36.417969 21.582031 37.011719 21.582031 C 37.601562 21.582031 38.082031 22.0625 38.082031 22.652344 " clip-rule="nonzero"/></clipPath><clipPath id="269d800412"><path d="M 23.394531 3.195312 L 46.992188 3.195312 L 46.992188 24.753906 L 23.394531 24.753906 Z M 23.394531 3.195312 " clip-rule="nonzero"/></clipPath><clipPath id="763db9b7c5"><path d="M 27.0625 4.0625 C 27.582031 4.0625 28.007812 4.484375 28.007812 5.007812 C 28.007812 5.527344 27.582031 5.949219 27.0625 5.949219 C 26.539062 5.949219 26.117188 5.527344 26.117188 5.007812 C 26.117188 4.484375 26.539062 4.0625 27.0625 4.0625 Z M 32.785156 10.652344 C 33.234375 10.652344 33.597656 11.015625 33.597656 11.464844 C 33.597656 11.910156 33.234375 12.269531 32.785156 12.269531 C 32.339844 12.269531 31.980469 11.910156 31.980469 11.464844 C 31.980469 11.019531 32.339844 10.652344 32.785156 10.652344 Z M 42.179688 13.546875 C 42.636719 13.546875 43.007812 13.917969 43.007812 14.375 C 43.007812 14.832031 42.636719 15.203125 42.179688 15.203125 C 41.71875 15.203125 41.347656 14.835938 41.347656 14.375 C 41.347656 13.917969 41.722656 13.546875 42.179688 13.546875 Z M 45.285156 20.34375 C 45.785156 20.34375 46.195312 20.75 46.195312 21.25 C 46.195312 21.753906 45.785156 22.160156 45.285156 22.160156 C 44.785156 22.160156 44.375 21.753906 44.375 21.25 C 44.375 20.75 44.785156 20.34375 45.285156 20.34375 Z M 27.042969 3.28125 C 26.457031 3.28125 25.929688 3.617188 25.601562 4.226562 C 25.117188 5.128906 25.4375 5.914062 26.503906 6.585938 C 26.753906 6.746094 27.015625 7.03125 27.074219 7.304688 C 27.238281 8.09375 27.34375 8.90625 27.40625 9.710938 C 27.800781 15.027344 26.644531 19.964844 23.511719 24.699219 C 24.898438 24.140625 26 23.734375 27.074219 23.257812 C 30.582031 21.691406 34.171875 20.785156 37.871094 20.785156 C 39.460938 20.785156 41.074219 20.953125 42.707031 21.308594 C 43.121094 21.398438 43.558594 21.75 43.824219 22.097656 C 44.21875 22.625 44.75 22.921875 45.289062 22.921875 C 45.574219 22.921875 45.867188 22.839844 46.136719 22.660156 C 46.640625 22.335938 46.921875 21.765625 46.925781 21.191406 L 46.925781 21.171875 C 46.921875 20.875 46.847656 20.578125 46.6875 20.316406 C 46.382812 19.816406 45.867188 19.5625 45.3125 19.5625 C 45 19.5625 44.671875 19.644531 44.359375 19.808594 C 44.082031 19.953125 43.726562 20.0625 43.40625 20.0625 C 43.332031 20.0625 43.261719 20.058594 43.195312 20.046875 C 41.382812 19.730469 39.574219 19.546875 37.761719 19.546875 C 36.125 19.546875 34.484375 19.695312 32.847656 20.035156 L 30.285156 20.667969 C 33.273438 18.546875 36.519531 16.980469 39.898438 15.6875 C 40.164062 15.585938 40.410156 15.5 40.664062 15.5 C 40.894531 15.5 41.136719 15.574219 41.410156 15.777344 C 41.640625 15.953125 41.902344 16.03125 42.164062 16.03125 C 42.710938 16.03125 43.265625 15.6875 43.574219 15.152344 C 44.015625 14.382812 43.792969 13.402344 43.058594 12.894531 C 42.765625 12.691406 42.402344 12.582031 42.054688 12.582031 C 41.566406 12.582031 41.113281 12.792969 40.917969 13.238281 C 40.449219 14.320312 39.492188 14.445312 38.636719 14.855469 L 30.601562 18.800781 C 30.304688 18.949219 30.019531 19.125 29.632812 19.34375 C 30.734375 17.324219 31.746094 15.445312 32.796875 13.589844 C 32.945312 13.332031 33.253906 13.148438 33.523438 12.980469 C 34.449219 12.40625 34.761719 11.472656 34.28125 10.632812 C 33.949219 10.058594 33.414062 9.746094 32.847656 9.746094 C 32.566406 9.746094 32.277344 9.824219 32.007812 9.984375 C 31.136719 10.5 30.925781 11.421875 31.4375 12.386719 C 31.542969 12.582031 31.730469 12.878906 31.660156 13.007812 L 27.71875 19.953125 C 27.617188 19.902344 27.515625 19.847656 27.414062 19.792969 L 27.566406 19.285156 C 28.632812 15.742188 29.074219 12.152344 28.519531 8.464844 C 28.390625 7.617188 28.296875 6.691406 28.503906 5.882812 C 28.785156 4.785156 28.625 3.835938 27.746094 3.441406 C 27.507812 3.335938 27.269531 3.28125 27.042969 3.28125 Z M 27.042969 3.28125 " clip-rule="nonzero"/></clipPath></defs><g clip-path="url(#37ee03af30)"><path fill="#ffffff" d="M 0.988281 0 L 149.011719 0 L 149.011719 37.007812 L 0.988281 37.007812 Z M 0.988281 0 " fill-opacity="1" fill-rule="nonzero"/><path fill="#ffffff" d="M 0.988281 0 L 149.011719 0 L 149.011719 37.007812 L 0.988281 37.007812 Z M 0.988281 0 " fill-opacity="1" fill-rule="nonzero"/></g><g clip-path="url(#71354312e2)"><g clip-path="url(#b754102707)"><path fill="#000000" d="M 13.316406 2.175781 L 48.015625 2.175781 L 48.015625 34.832031 L 13.316406 34.832031 Z M 13.316406 2.175781 " fill-opacity="1" fill-rule="nonzero"/></g></g><g clip-path="url(#dbb3b5751f)"><g clip-path="url(#7dc6613152)"><path fill="#468f27" d="M 13.316406 2.175781 L 48.015625 2.175781 L 48.015625 34.832031 L 13.316406 34.832031 Z M 13.316406 2.175781 " fill-opacity="1" fill-rule="nonzero"/></g></g><g clip-path="url(#269d800412)"><g clip-path="url(#763db9b7c5)"><path fill="#7ed957" d="M 13.316406 2.175781 L 48.015625 2.175781 L 48.015625 34.832031 L 13.316406 34.832031 Z M 13.316406 2.175781 " fill-opacity="1" fill-rule="nonzero"/></g></g><g fill="#7ed957" fill-opacity="1"><g transform="translate(50.576831, 24.138076)"><g><path d="M 7.921875 -1.90625 L 3.390625 -1.90625 L 2.640625 0 L -0.078125 0 L 4.390625 -10.359375 L 7.109375 -10.359375 L 11.46875 0 L 8.65625 0 Z M 7.140625 -3.90625 L 5.671875 -7.734375 L 4.15625 -3.90625 Z M 7.140625 -3.90625 "/></g></g></g><g fill="#7ed957" fill-opacity="1"><g transform="translate(61.966155, 24.138076)"><g><path d="M 1.03125 -10.359375 L 5.546875 -10.359375 C 6.867188 -10.359375 7.894531 -10.046875 8.625 -9.421875 C 9.351562 -8.796875 9.71875 -7.90625 9.71875 -6.75 C 9.71875 -5.53125 9.351562 -4.585938 8.625 -3.921875 C 7.894531 -3.253906 6.867188 -2.921875 5.546875 -2.921875 L 3.671875 -2.921875 L 3.671875 0 L 1.03125 0 Z M 3.671875 -8.28125 L 3.671875 -4.984375 L 5.421875 -4.984375 C 5.992188 -4.984375 6.4375 -5.125 6.75 -5.40625 C 7.070312 -5.695312 7.234375 -6.113281 7.234375 -6.65625 C 7.234375 -7.1875 7.070312 -7.585938 6.75 -7.859375 C 6.4375 -8.140625 5.992188 -8.28125 5.421875 -8.28125 Z M 3.671875 -8.28125 "/></g></g></g><g fill="#7ed957" fill-opacity="1"><g transform="translate(72.024262, 24.138076)"><g><path d="M 7.28125 0 L 5.734375 -2.921875 L 3.671875 -2.921875 L 3.671875 0 L 1.03125 0 L 1.03125 -10.359375 L 5.671875 -10.359375 C 7.035156 -10.359375 8.09375 -10.046875 8.84375 -9.421875 C 9.59375 -8.796875 9.96875 -7.90625 9.96875 -6.75 C 9.96875 -5.144531 9.34375 -4.035156 8.09375 -3.421875 L 10.265625 0 Z M 3.671875 -4.984375 L 5.671875 -4.984375 C 6.242188 -4.984375 6.6875 -5.125 7 -5.40625 C 7.3125 -5.695312 7.46875 -6.113281 7.46875 -6.65625 C 7.46875 -7.1875 7.3125 -7.585938 7 -7.859375 C 6.6875 -8.140625 6.242188 -8.28125 5.671875 -8.28125 L 3.671875 -8.28125 Z M 3.671875 -4.984375 "/></g></g></g><g fill="#7ed957" fill-opacity="1"><g transform="translate(82.733184, 24.138076)"><g><path d="M 9.140625 -8.28125 L 3.671875 -8.28125 L 3.671875 -6.234375 L 8.609375 -6.234375 L 8.609375 -4.15625 L 3.671875 -4.15625 L 3.671875 -2.078125 L 9.3125 -2.078125 L 9.3125 0 L 1.03125 0 L 1.03125 -10.359375 L 9.140625 -10.359375 Z M 9.140625 -8.28125 "/></g></g></g><g fill="#7ed957" fill-opacity="1"><g transform="translate(92.702544, 24.138076)"><g><path d="M 10.59375 0 L 8.265625 0 L 3.5 -6.375 L 3.5 0 L 1.03125 0 L 1.03125 -10.359375 L 3.359375 -10.359375 L 8.140625 -3.96875 L 8.140625 -10.359375 L 10.59375 -10.359375 Z M 10.59375 0 "/></g></g></g><g fill="#7ed957" fill-opacity="1"><g transform="translate(104.328528, 24.138076)"><g><path d="M 1.03125 -10.359375 L 5.484375 -10.359375 C 7.117188 -10.359375 8.445312 -9.878906 9.46875 -8.921875 C 10.488281 -7.960938 11 -6.710938 11 -5.171875 C 11 -3.648438 10.476562 -2.40625 9.4375 -1.4375 C 8.40625 -0.476562 7.054688 0 5.390625 0 L 1.03125 0 Z M 3.671875 -8.25 L 3.671875 -2.09375 L 5.546875 -2.09375 C 6.359375 -2.09375 7.019531 -2.375 7.53125 -2.9375 C 8.050781 -3.507812 8.3125 -4.25 8.3125 -5.15625 C 8.3125 -6.070312 8.039062 -6.816406 7.5 -7.390625 C 6.957031 -7.960938 6.269531 -8.25 5.4375 -8.25 Z M 3.671875 -8.25 "/></g></g></g><g fill="#7ed957" fill-opacity="1"><g transform="translate(115.673477, 24.138076)"><g><path d="M 9.140625 -8.28125 L 3.671875 -8.28125 L 3.671875 -6.234375 L 8.609375 -6.234375 L 8.609375 -4.15625 L 3.671875 -4.15625 L 3.671875 -2.078125 L 9.3125 -2.078125 L 9.3125 0 L 1.03125 0 L 1.03125 -10.359375 L 9.140625 -10.359375 Z M 9.140625 -8.28125 "/></g></g></g><g fill="#000000" fill-opacity="1"><g transform="translate(50.576831, 32.63127)"><g><path d="M 0.546875 -4.140625 L 2.203125 -4.140625 C 2.722656 -4.140625 3.125 -4.015625 3.40625 -3.765625 C 3.695312 -3.523438 3.84375 -3.179688 3.84375 -2.734375 C 3.84375 -2.265625 3.695312 -1.898438 3.40625 -1.640625 C 3.125 -1.378906 2.722656 -1.25 2.203125 -1.25 L 1.25 -1.25 L 1.25 0 L 0.546875 0 Z M 1.25 -3.515625 L 1.25 -1.875 L 2.171875 -1.875 C 2.835938 -1.875 3.171875 -2.15625 3.171875 -2.71875 C 3.171875 -3.25 2.835938 -3.515625 2.171875 -3.515625 Z M 1.25 -3.515625 "/></g></g></g><g fill="#000000" fill-opacity="1"><g transform="translate(56.85522, 32.63127)"><g><path d="M 3.171875 0 L 2.421875 -1.25 C 2.378906 -1.25 2.316406 -1.25 2.234375 -1.25 L 1.25 -1.25 L 1.25 0 L 0.546875 0 L 0.546875 -4.140625 L 2.234375 -4.140625 C 2.753906 -4.140625 3.160156 -4.015625 3.453125 -3.765625 C 3.742188 -3.523438 3.890625 -3.179688 3.890625 -2.734375 C 3.890625 -2.398438 3.816406 -2.117188 3.671875 -1.890625 C 3.523438 -1.660156 3.3125 -1.492188 3.03125 -1.390625 L 3.96875 0 Z M 1.25 -1.875 L 2.234375 -1.875 C 2.898438 -1.875 3.234375 -2.15625 3.234375 -2.71875 C 3.234375 -3.25 2.898438 -3.515625 2.234375 -3.515625 L 1.25 -3.515625 Z M 1.25 -1.875 "/></g></g></g><g fill="#000000" fill-opacity="1"><g transform="translate(63.429661, 32.63127)"><g><path d="M 0.828125 -3.546875 C 1.253906 -3.953125 1.773438 -4.15625 2.390625 -4.15625 C 3.015625 -4.15625 3.535156 -3.953125 3.953125 -3.546875 C 4.378906 -3.148438 4.59375 -2.65625 4.59375 -2.0625 C 4.59375 -1.476562 4.378906 -0.984375 3.953125 -0.578125 C 3.535156 -0.171875 3.015625 0.03125 2.390625 0.03125 C 1.773438 0.03125 1.253906 -0.171875 0.828125 -0.578125 C 0.410156 -0.984375 0.203125 -1.476562 0.203125 -2.0625 C 0.203125 -2.65625 0.410156 -3.148438 0.828125 -3.546875 Z M 2.40625 -3.53125 C 1.988281 -3.53125 1.632812 -3.390625 1.34375 -3.109375 C 1.050781 -2.828125 0.90625 -2.476562 0.90625 -2.0625 C 0.90625 -1.65625 1.050781 -1.304688 1.34375 -1.015625 C 1.644531 -0.734375 2 -0.59375 2.40625 -0.59375 C 2.8125 -0.59375 3.15625 -0.734375 3.4375 -1.015625 C 3.726562 -1.304688 3.875 -1.65625 3.875 -2.0625 C 3.875 -2.476562 3.726562 -2.828125 3.4375 -3.109375 C 3.15625 -3.390625 2.8125 -3.53125 2.40625 -3.53125 Z M 2.40625 -3.53125 "/></g></g></g><g fill="#000000" fill-opacity="1"><g transform="translate(70.519224, 32.63127)"><g><path d="M 3.375 -2.03125 L 3.984375 -2.03125 L 3.984375 -0.515625 C 3.773438 -0.347656 3.523438 -0.210938 3.234375 -0.109375 C 2.941406 -0.015625 2.65625 0.03125 2.375 0.03125 C 1.769531 0.03125 1.253906 -0.171875 0.828125 -0.578125 C 0.410156 -0.984375 0.203125 -1.476562 0.203125 -2.0625 C 0.203125 -2.65625 0.414062 -3.148438 0.84375 -3.546875 C 1.269531 -3.953125 1.796875 -4.15625 2.421875 -4.15625 C 2.710938 -4.15625 3 -4.101562 3.28125 -4 C 3.5625 -3.894531 3.804688 -3.753906 4.015625 -3.578125 L 3.625 -3.0625 C 3.28125 -3.382812 2.878906 -3.546875 2.421875 -3.546875 C 1.992188 -3.546875 1.632812 -3.398438 1.34375 -3.109375 C 1.050781 -2.828125 0.90625 -2.484375 0.90625 -2.078125 C 0.90625 -1.660156 1.050781 -1.304688 1.34375 -1.015625 C 1.644531 -0.734375 2.003906 -0.59375 2.421875 -0.59375 C 2.742188 -0.59375 3.0625 -0.6875 3.375 -0.875 Z M 3.375 -2.03125 "/></g></g></g><g fill="#000000" fill-opacity="1"><g transform="translate(77.247607, 32.63127)"><g><path d="M 3.171875 0 L 2.421875 -1.25 C 2.378906 -1.25 2.316406 -1.25 2.234375 -1.25 L 1.25 -1.25 L 1.25 0 L 0.546875 0 L 0.546875 -4.140625 L 2.234375 -4.140625 C 2.753906 -4.140625 3.160156 -4.015625 3.453125 -3.765625 C 3.742188 -3.523438 3.890625 -3.179688 3.890625 -2.734375 C 3.890625 -2.398438 3.816406 -2.117188 3.671875 -1.890625 C 3.523438 -1.660156 3.3125 -1.492188 3.03125 -1.390625 L 3.96875 0 Z M 1.25 -1.875 L 2.234375 -1.875 C 2.898438 -1.875 3.234375 -2.15625 3.234375 -2.71875 C 3.234375 -3.25 2.898438 -3.515625 2.234375 -3.515625 L 1.25 -3.515625 Z M 1.25 -1.875 "/></g></g></g><g fill="#000000" fill-opacity="1"><g transform="translate(83.822046, 32.63127)"><g><path d="M 3.21875 -0.9375 L 1.125 -0.9375 L 0.734375 0 L 0 0 L 1.828125 -4.140625 L 2.546875 -4.140625 L 4.359375 0 L 3.625 0 Z M 2.953125 -1.5625 L 2.171875 -3.40625 L 1.390625 -1.5625 Z M 2.953125 -1.5625 "/></g></g></g><g fill="#000000" fill-opacity="1"><g transform="translate(90.485297, 32.63127)"><g><path d="M 4.921875 0 L 4.28125 0 L 4.28125 -3.09375 L 2.96875 -0.4375 L 2.515625 -0.4375 L 1.203125 -3.09375 L 1.203125 0 L 0.546875 0 L 0.546875 -4.140625 L 1.375 -4.140625 L 2.734375 -1.390625 L 4.109375 -4.140625 L 4.921875 -4.140625 Z M 4.921875 0 "/></g></g></g><g fill="#000000" fill-opacity="1"><g transform="translate(98.255767, 32.63127)"><g><path d="M 3.21875 -0.9375 L 1.125 -0.9375 L 0.734375 0 L 0 0 L 1.828125 -4.140625 L 2.546875 -4.140625 L 4.359375 0 L 3.625 0 Z M 2.953125 -1.5625 L 2.171875 -3.40625 L 1.390625 -1.5625 Z M 2.953125 -1.5625 "/></g></g></g><g fill="#000000" fill-opacity="1"><g transform="translate(104.919018, 32.63127)"><g><path d="M 4.140625 0 L 3.453125 0 L 1.25 -2.96875 L 1.25 0 L 0.546875 0 L 0.546875 -4.140625 L 1.234375 -4.140625 L 3.453125 -1.171875 L 3.453125 -4.140625 L 4.140625 -4.140625 Z M 4.140625 0 "/></g></g></g><g fill="#000000" fill-opacity="1"><g transform="translate(111.902002, 32.63127)"><g><path d="M 0.546875 -4.140625 L 2.25 -4.140625 C 2.863281 -4.140625 3.375 -3.941406 3.78125 -3.546875 C 4.1875 -3.160156 4.390625 -2.664062 4.390625 -2.0625 C 4.390625 -1.46875 4.1875 -0.972656 3.78125 -0.578125 C 3.375 -0.191406 2.859375 0 2.234375 0 L 0.546875 0 Z M 1.25 -3.515625 L 1.25 -0.625 L 2.265625 -0.625 C 2.671875 -0.625 3.007812 -0.757812 3.28125 -1.03125 C 3.550781 -1.300781 3.6875 -1.644531 3.6875 -2.0625 C 3.6875 -2.476562 3.546875 -2.820312 3.265625 -3.09375 C 2.984375 -3.375 2.640625 -3.515625 2.234375 -3.515625 Z M 1.25 -3.515625 "/></g></g></g><g fill="#000000" fill-opacity="1"><g transform="translate(118.78433, 32.63127)"><g><path d="M 0.828125 -3.546875 C 1.253906 -3.953125 1.773438 -4.15625 2.390625 -4.15625 C 3.015625 -4.15625 3.535156 -3.953125 3.953125 -3.546875 C 4.378906 -3.148438 4.59375 -2.65625 4.59375 -2.0625 C 4.59375 -1.476562 4.378906 -0.984375 3.953125 -0.578125 C 3.535156 -0.171875 3.015625 0.03125 2.390625 0.03125 C 1.773438 0.03125 1.253906 -0.171875 0.828125 -0.578125 C 0.410156 -0.984375 0.203125 -1.476562 0.203125 -2.0625 C 0.203125 -2.65625 0.410156 -3.148438 0.828125 -3.546875 Z M 2.40625 -3.53125 C 1.988281 -3.53125 1.632812 -3.390625 1.34375 -3.109375 C 1.050781 -2.828125 0.90625 -2.476562 0.90625 -2.0625 C 0.90625 -1.65625 1.050781 -1.304688 1.34375 -1.015625 C 1.644531 -0.734375 2 -0.59375 2.40625 -0.59375 C 2.8125 -0.59375 3.15625 -0.734375 3.4375 -1.015625 C 3.726562 -1.304688 3.875 -1.65625 3.875 -2.0625 C 3.875 -2.476562 3.726562 -2.828125 3.4375 -3.109375 C 3.15625 -3.390625 2.8125 -3.53125 2.40625 -3.53125 Z M 2.40625 -3.53125 "/></g></g></g></svg>