<svg xmlns="http://www.w3.org/2000/svg" xmlns:xlink="http://www.w3.org/1999/xlink" width="500" zoomAndPan="magnify" viewBox="0 0 375 374.999991" height="500" preserveAspectRatio="xMidYMid meet" version="1.0"><defs><g/><clipPath id="9acd6116e0"><path d="M 23.035156 169.117188 L 98.066406 169.117188 L 98.066406 232 L 23.035156 232 Z M 23.035156 169.117188 " clip-rule="nonzero"/></clipPath><clipPath id="4b116463d0"><path d="M 96.144531 198.152344 L 95.550781 198.535156 L 95.257812 213.496094 C 72.140625 215.007812 49.335938 216.503906 26.453125 218.003906 L 26.453125 171.746094 C 36.265625 171.746094 45.820312 171.714844 55.367188 171.773438 C 57.53125 171.785156 58.710938 171.304688 58.015625 169.171875 L 23.296875 169.171875 L 23.296875 227 C 33.761719 226.289062 43.875 225.597656 54.042969 224.902344 L 54.042969 230.097656 C 52.296875 230.457031 50.738281 230.777344 49.171875 231.097656 L 49.335938 231.871094 C 57.640625 231.59375 65.871094 230.925781 74.101562 230.269531 L 74.074219 229.519531 L 69.5625 229.140625 L 69.5625 223.726562 C 79.105469 223.011719 88.476562 222.304688 97.996094 221.589844 C 97.996094 214.128906 98.042969 207.078125 97.917969 200.035156 C 97.90625 199.398438 96.769531 198.777344 96.148438 198.152344 " clip-rule="nonzero"/></clipPath><clipPath id="019e0103a9"><path d="M 86.4375 196.503906 L 93 196.503906 L 93 202.882812 L 86.4375 202.882812 Z M 86.4375 196.503906 " clip-rule="nonzero"/></clipPath><clipPath id="e6c77d645e"><path d="M 92.871094 199.703125 C 92.871094 201.445312 91.453125 202.851562 89.71875 202.851562 C 87.984375 202.851562 86.5625 201.445312 86.5625 199.703125 C 86.5625 197.960938 87.980469 196.554688 89.71875 196.554688 C 91.460938 196.554688 92.871094 197.960938 92.871094 199.703125 " clip-rule="nonzero"/></clipPath><clipPath id="1de9e8ce31"><path d="M 50 142.480469 L 119 142.480469 L 119 205.882812 L 50 205.882812 Z M 50 142.480469 " clip-rule="nonzero"/></clipPath><clipPath id="2ed86a464f"><path d="M 60.460938 145.03125 C 61.992188 145.03125 63.238281 146.273438 63.238281 147.808594 C 63.238281 149.339844 61.992188 150.585938 60.460938 150.585938 C 58.925781 150.585938 57.679688 149.339844 57.679688 147.808594 C 57.679688 146.273438 58.925781 145.03125 60.460938 145.03125 Z M 77.296875 164.417969 C 78.609375 164.417969 79.675781 165.480469 79.675781 166.796875 C 79.675781 168.113281 78.613281 169.171875 77.296875 169.171875 C 75.980469 169.171875 74.921875 168.109375 74.921875 166.796875 C 74.921875 165.488281 75.988281 164.417969 77.296875 164.417969 Z M 104.914062 172.921875 C 106.265625 172.921875 107.355469 174.015625 107.355469 175.359375 C 107.355469 176.703125 106.265625 177.800781 104.914062 177.800781 C 103.566406 177.800781 102.476562 176.710938 102.476562 175.359375 C 102.476562 174.011719 103.570312 172.921875 104.914062 172.921875 Z M 114.050781 192.910156 C 115.523438 192.910156 116.726562 194.109375 116.726562 195.582031 C 116.726562 197.054688 115.523438 198.257812 114.050781 198.257812 C 112.578125 198.257812 111.378906 197.0625 111.378906 195.582031 C 111.378906 194.101562 112.578125 192.910156 114.050781 192.910156 Z M 60.402344 142.742188 C 58.6875 142.742188 57.128906 143.71875 56.164062 145.519531 C 54.742188 148.167969 55.6875 150.476562 58.824219 152.457031 C 59.554688 152.921875 60.328125 153.769531 60.492188 154.5625 C 60.980469 156.890625 61.292969 159.273438 61.46875 161.644531 C 62.632812 177.285156 59.234375 191.800781 50.027344 205.714844 C 54.101562 204.074219 57.34375 202.886719 60.492188 201.484375 C 70.808594 196.875 81.367188 194.207031 92.242188 194.207031 C 96.925781 194.207031 101.667969 194.703125 106.472656 195.746094 C 107.691406 196.011719 108.976562 197.042969 109.753906 198.074219 C 110.921875 199.625 112.480469 200.5 114.0625 200.5 C 114.90625 200.5 115.757812 200.25 116.5625 199.730469 C 118.042969 198.769531 118.871094 197.089844 118.875 195.40625 L 118.875 195.347656 C 118.871094 194.472656 118.648438 193.605469 118.179688 192.835938 C 117.277344 191.363281 115.765625 190.613281 114.136719 190.613281 C 113.210938 190.613281 112.246094 190.855469 111.332031 191.335938 C 110.515625 191.765625 109.464844 192.085938 108.527344 192.085938 C 108.3125 192.085938 108.105469 192.074219 107.902344 192.035156 C 102.574219 191.109375 97.253906 190.566406 91.925781 190.566406 C 87.113281 190.566406 82.292969 191.011719 77.480469 192.007812 L 69.941406 193.859375 C 78.730469 187.625 88.273438 183.023438 98.210938 179.21875 C 98.992188 178.921875 99.71875 178.667969 100.460938 178.667969 C 101.144531 178.667969 101.851562 178.882812 102.652344 179.480469 C 103.335938 179.996094 104.105469 180.226562 104.875 180.226562 C 106.488281 180.226562 108.117188 179.214844 109.015625 177.648438 C 110.3125 175.378906 109.664062 172.496094 107.503906 171.003906 C 106.644531 170.402344 105.574219 170.089844 104.550781 170.089844 C 103.121094 170.089844 101.785156 170.703125 101.210938 172.019531 C 99.828125 175.203125 97.019531 175.5625 94.5 176.773438 L 70.875 188.371094 C 69.992188 188.808594 69.160156 189.328125 68.019531 189.972656 C 71.265625 184.03125 74.238281 178.507812 77.328125 173.046875 C 77.761719 172.289062 78.671875 171.746094 79.460938 171.257812 C 82.1875 169.574219 83.109375 166.824219 81.6875 164.351562 C 80.714844 162.664062 79.136719 161.742188 77.472656 161.742188 C 76.644531 161.742188 75.796875 161.972656 75.003906 162.449219 C 72.4375 163.96875 71.820312 166.671875 73.332031 169.511719 C 73.640625 170.089844 74.191406 170.957031 73.984375 171.335938 L 62.394531 191.765625 C 62.097656 191.609375 61.796875 191.449219 61.496094 191.292969 L 61.941406 189.796875 C 65.078125 179.382812 66.382812 168.824219 64.75 157.972656 C 64.371094 155.484375 64.09375 152.765625 64.699219 150.390625 C 65.527344 147.164062 65.0625 144.363281 62.476562 143.203125 C 61.777344 142.890625 61.074219 142.742188 60.402344 142.742188 Z M 60.402344 142.742188 " clip-rule="nonzero"/></clipPath></defs><g clip-path="url(#9acd6116e0)"><g clip-path="url(#4b116463d0)"><path fill="#000000" d="M 20.035156 139.480469 L 122.078125 139.480469 L 122.078125 235.519531 L 20.035156 235.519531 Z M 20.035156 139.480469 " fill-opacity="1" fill-rule="nonzero"/></g></g><g clip-path="url(#019e0103a9)"><g clip-path="url(#e6c77d645e)"><path fill="#468f27" d="M 20.035156 139.480469 L 122.078125 139.480469 L 122.078125 235.519531 L 20.035156 235.519531 Z M 20.035156 139.480469 " fill-opacity="1" fill-rule="nonzero"/></g></g><g clip-path="url(#1de9e8ce31)"><g clip-path="url(#2ed86a464f)"><path fill="#7ed957" d="M 20.035156 139.480469 L 122.078125 139.480469 L 122.078125 235.519531 L 20.035156 235.519531 Z M 20.035156 139.480469 " fill-opacity="1" fill-rule="nonzero"/></g></g><g fill="#7ed957" fill-opacity="1"><g transform="translate(129.613386, 204.070625)"><g><path d="M 23.265625 -5.609375 L 9.96875 -5.609375 L 7.75 0 L -0.21875 0 L 12.921875 -30.453125 L 20.875 -30.453125 L 33.71875 0 L 25.453125 0 Z M 21.015625 -11.484375 L 16.65625 -22.75 L 12.21875 -11.484375 Z M 21.015625 -11.484375 "/></g></g></g><g fill="#7ed957" fill-opacity="1"><g transform="translate(163.1067, 204.070625)"><g><path d="M 3.046875 -30.453125 L 16.3125 -30.453125 C 20.195312 -30.453125 23.210938 -29.53125 25.359375 -27.6875 C 27.503906 -25.84375 28.578125 -23.226562 28.578125 -19.84375 C 28.578125 -16.269531 27.503906 -13.492188 25.359375 -11.515625 C 23.210938 -9.546875 20.195312 -8.5625 16.3125 -8.5625 L 10.78125 -8.5625 L 10.78125 0 L 3.046875 0 Z M 10.78125 -24.359375 L 10.78125 -14.65625 L 15.921875 -14.65625 C 17.628906 -14.65625 18.945312 -15.078125 19.875 -15.921875 C 20.800781 -16.765625 21.265625 -17.984375 21.265625 -19.578125 C 21.265625 -21.140625 20.800781 -22.328125 19.875 -23.140625 C 18.945312 -23.953125 17.628906 -24.359375 15.921875 -24.359375 Z M 10.78125 -24.359375 "/></g></g></g><g fill="#7ed957" fill-opacity="1"><g transform="translate(192.685218, 204.070625)"><g><path d="M 21.40625 0 L 16.875 -8.5625 L 10.78125 -8.5625 L 10.78125 0 L 3.046875 0 L 3.046875 -30.453125 L 16.65625 -30.453125 C 20.6875 -30.453125 23.800781 -29.53125 26 -27.6875 C 28.207031 -25.84375 29.3125 -23.226562 29.3125 -19.84375 C 29.3125 -15.132812 27.472656 -11.867188 23.796875 -10.046875 L 30.1875 0 Z M 10.78125 -14.65625 L 16.65625 -14.65625 C 18.34375 -14.65625 19.648438 -15.078125 20.578125 -15.921875 C 21.503906 -16.765625 21.96875 -17.984375 21.96875 -19.578125 C 21.96875 -21.140625 21.503906 -22.328125 20.578125 -23.140625 C 19.648438 -23.953125 18.34375 -24.359375 16.65625 -24.359375 L 10.78125 -24.359375 Z M 10.78125 -14.65625 "/></g></g></g><g fill="#7ed957" fill-opacity="1"><g transform="translate(224.177628, 204.070625)"><g><path d="M 26.890625 -24.359375 L 10.78125 -24.359375 L 10.78125 -18.3125 L 25.3125 -18.3125 L 25.3125 -12.21875 L 10.78125 -12.21875 L 10.78125 -6.09375 L 27.359375 -6.09375 L 27.359375 0 L 3.046875 0 L 3.046875 -30.453125 L 26.890625 -30.453125 Z M 26.890625 -24.359375 "/></g></g></g><g fill="#7ed957" fill-opacity="1"><g transform="translate(253.49516, 204.070625)"><g><path d="M 31.140625 0 L 24.3125 0 L 10.3125 -18.75 L 10.3125 0 L 3.046875 0 L 3.046875 -30.453125 L 9.875 -30.453125 L 23.921875 -11.65625 L 23.921875 -30.453125 L 31.140625 -30.453125 Z M 31.140625 0 "/></g></g></g><g fill="#7ed957" fill-opacity="1"><g transform="translate(287.684435, 204.070625)"><g><path d="M 3.046875 -30.453125 L 16.140625 -30.453125 C 20.921875 -30.453125 24.8125 -29.046875 27.8125 -26.234375 C 30.820312 -23.421875 32.328125 -19.75 32.328125 -15.21875 C 32.328125 -10.726562 30.800781 -7.066406 27.75 -4.234375 C 24.707031 -1.410156 20.734375 0 15.828125 0 L 3.046875 0 Z M 10.78125 -24.265625 L 10.78125 -6.171875 L 16.3125 -6.171875 C 18.6875 -6.171875 20.632812 -7.003906 22.15625 -8.671875 C 23.6875 -10.335938 24.453125 -12.503906 24.453125 -15.171875 C 24.453125 -17.847656 23.648438 -20.03125 22.046875 -21.71875 C 20.453125 -23.414062 18.425781 -24.265625 15.96875 -24.265625 Z M 10.78125 -24.265625 "/></g></g></g><g fill="#7ed957" fill-opacity="1"><g transform="translate(321.047249, 204.070625)"><g><path d="M 26.890625 -24.359375 L 10.78125 -24.359375 L 10.78125 -18.3125 L 25.3125 -18.3125 L 25.3125 -12.21875 L 10.78125 -12.21875 L 10.78125 -6.09375 L 27.359375 -6.09375 L 27.359375 0 L 3.046875 0 L 3.046875 -30.453125 L 26.890625 -30.453125 Z M 26.890625 -24.359375 "/></g></g></g><g fill="#000000" fill-opacity="1"><g transform="translate(129.613386, 229.047041)"><g><path d="M 1.609375 -12.203125 L 6.46875 -12.203125 C 8 -12.203125 9.1875 -11.835938 10.03125 -11.109375 C 10.875 -10.378906 11.296875 -9.351562 11.296875 -8.03125 C 11.296875 -6.644531 10.875 -5.570312 10.03125 -4.8125 C 9.1875 -4.050781 8 -3.671875 6.46875 -3.671875 L 3.65625 -3.671875 L 3.65625 0 L 1.609375 0 Z M 3.65625 -10.34375 L 3.65625 -5.515625 L 6.375 -5.515625 C 8.34375 -5.515625 9.328125 -6.335938 9.328125 -7.984375 C 9.328125 -9.554688 8.34375 -10.34375 6.375 -10.34375 Z M 3.65625 -10.34375 "/></g></g></g><g fill="#000000" fill-opacity="1"><g transform="translate(148.076647, 229.047041)"><g><path d="M 9.34375 0 L 7.109375 -3.6875 C 6.992188 -3.675781 6.804688 -3.671875 6.546875 -3.671875 L 3.65625 -3.671875 L 3.65625 0 L 1.609375 0 L 1.609375 -12.203125 L 6.546875 -12.203125 C 8.109375 -12.203125 9.316406 -11.835938 10.171875 -11.109375 C 11.035156 -10.378906 11.46875 -9.351562 11.46875 -8.03125 C 11.46875 -7.050781 11.25 -6.222656 10.8125 -5.546875 C 10.375 -4.878906 9.75 -4.390625 8.9375 -4.078125 L 11.671875 0 Z M 3.65625 -5.515625 L 6.546875 -5.515625 C 8.523438 -5.515625 9.515625 -6.335938 9.515625 -7.984375 C 9.515625 -9.554688 8.523438 -10.34375 6.546875 -10.34375 L 3.65625 -10.34375 Z M 3.65625 -5.515625 "/></g></g></g><g fill="#000000" fill-opacity="1"><g transform="translate(167.410525, 229.047041)"><g><path d="M 2.453125 -10.484375 C 3.703125 -11.660156 5.238281 -12.25 7.0625 -12.25 C 8.882812 -12.25 10.414062 -11.660156 11.65625 -10.484375 C 12.894531 -9.304688 13.515625 -7.84375 13.515625 -6.09375 C 13.515625 -4.351562 12.894531 -2.882812 11.65625 -1.6875 C 10.414062 -0.5 8.882812 0.09375 7.0625 0.09375 C 5.238281 0.09375 3.703125 -0.5 2.453125 -1.6875 C 1.210938 -2.882812 0.59375 -4.351562 0.59375 -6.09375 C 0.59375 -7.84375 1.210938 -9.304688 2.453125 -10.484375 Z M 7.078125 -10.40625 C 5.867188 -10.40625 4.832031 -9.988281 3.96875 -9.15625 C 3.113281 -8.320312 2.6875 -7.300781 2.6875 -6.09375 C 2.6875 -4.882812 3.117188 -3.859375 3.984375 -3.015625 C 4.847656 -2.179688 5.878906 -1.765625 7.078125 -1.765625 C 8.273438 -1.765625 9.296875 -2.179688 10.140625 -3.015625 C 10.984375 -3.859375 11.40625 -4.882812 11.40625 -6.09375 C 11.40625 -7.300781 10.984375 -8.320312 10.140625 -9.15625 C 9.296875 -9.988281 8.273438 -10.40625 7.078125 -10.40625 Z M 7.078125 -10.40625 "/></g></g></g><g fill="#000000" fill-opacity="1"><g transform="translate(188.259256, 229.047041)"><g><path d="M 9.953125 -6 L 11.75 -6 L 11.75 -1.5 C 11.113281 -1.019531 10.367188 -0.632812 9.515625 -0.34375 C 8.660156 -0.0507812 7.820312 0.09375 7 0.09375 C 5.195312 0.09375 3.675781 -0.5 2.4375 -1.6875 C 1.207031 -2.882812 0.59375 -4.351562 0.59375 -6.09375 C 0.59375 -7.84375 1.21875 -9.304688 2.46875 -10.484375 C 3.726562 -11.660156 5.28125 -12.25 7.125 -12.25 C 7.988281 -12.25 8.832031 -12.09375 9.65625 -11.78125 C 10.488281 -11.476562 11.207031 -11.066406 11.8125 -10.546875 L 10.640625 -9.03125 C 9.640625 -9.957031 8.46875 -10.421875 7.125 -10.421875 C 5.882812 -10.421875 4.832031 -10 3.96875 -9.15625 C 3.113281 -8.320312 2.6875 -7.300781 2.6875 -6.09375 C 2.6875 -4.875 3.117188 -3.847656 3.984375 -3.015625 C 4.847656 -2.179688 5.898438 -1.765625 7.140625 -1.765625 C 8.078125 -1.765625 9.015625 -2.039062 9.953125 -2.59375 Z M 9.953125 -6 "/></g></g></g><g fill="#000000" fill-opacity="1"><g transform="translate(208.04584, 229.047041)"><g><path d="M 9.34375 0 L 7.109375 -3.6875 C 6.992188 -3.675781 6.804688 -3.671875 6.546875 -3.671875 L 3.65625 -3.671875 L 3.65625 0 L 1.609375 0 L 1.609375 -12.203125 L 6.546875 -12.203125 C 8.109375 -12.203125 9.316406 -11.835938 10.171875 -11.109375 C 11.035156 -10.378906 11.46875 -9.351562 11.46875 -8.03125 C 11.46875 -7.050781 11.25 -6.222656 10.8125 -5.546875 C 10.375 -4.878906 9.75 -4.390625 8.9375 -4.078125 L 11.671875 0 Z M 3.65625 -5.515625 L 6.546875 -5.515625 C 8.523438 -5.515625 9.515625 -6.335938 9.515625 -7.984375 C 9.515625 -9.554688 8.523438 -10.34375 6.546875 -10.34375 L 3.65625 -10.34375 Z M 3.65625 -5.515625 "/></g></g></g><g fill="#000000" fill-opacity="1"><g transform="translate(227.379713, 229.047041)"><g><path d="M 9.484375 -2.75 L 3.328125 -2.75 L 2.15625 0 L 0.015625 0 L 5.40625 -12.203125 L 7.515625 -12.203125 L 12.84375 0 L 10.640625 0 Z M 8.6875 -4.578125 L 6.390625 -10 L 4.09375 -4.578125 Z M 8.6875 -4.578125 "/></g></g></g><g fill="#000000" fill-opacity="1"><g transform="translate(246.974762, 229.047041)"><g><path d="M 14.5 0 L 12.59375 0 L 12.578125 -9.109375 L 8.734375 -1.265625 L 7.390625 -1.265625 L 3.53125 -9.109375 L 3.53125 0 L 1.609375 0 L 1.609375 -12.203125 L 4.046875 -12.203125 L 8.0625 -4.09375 L 12.078125 -12.203125 L 14.5 -12.203125 Z M 14.5 0 "/></g></g></g><g fill="#000000" fill-opacity="1"><g transform="translate(269.825877, 229.047041)"><g><path d="M 9.484375 -2.75 L 3.328125 -2.75 L 2.15625 0 L 0.015625 0 L 5.40625 -12.203125 L 7.515625 -12.203125 L 12.84375 0 L 10.640625 0 Z M 8.6875 -4.578125 L 6.390625 -10 L 4.09375 -4.578125 Z M 8.6875 -4.578125 "/></g></g></g><g fill="#000000" fill-opacity="1"><g transform="translate(289.420926, 229.047041)"><g><path d="M 12.171875 0 L 10.15625 0 L 3.65625 -8.75 L 3.65625 0 L 1.609375 0 L 1.609375 -12.203125 L 3.625 -12.203125 L 10.15625 -3.4375 L 10.15625 -12.203125 L 12.171875 -12.203125 Z M 12.171875 0 "/></g></g></g><g fill="#000000" fill-opacity="1"><g transform="translate(309.956233, 229.047041)"><g><path d="M 1.609375 -12.203125 L 6.609375 -12.203125 C 8.429688 -12.203125 9.9375 -11.625 11.125 -10.46875 C 12.3125 -9.320312 12.90625 -7.863281 12.90625 -6.09375 C 12.90625 -4.332031 12.304688 -2.875 11.109375 -1.71875 C 9.921875 -0.570312 8.398438 0 6.546875 0 L 1.609375 0 Z M 3.65625 -10.34375 L 3.65625 -1.84375 L 6.65625 -1.84375 C 7.851562 -1.84375 8.847656 -2.238281 9.640625 -3.03125 C 10.441406 -3.832031 10.84375 -4.847656 10.84375 -6.078125 C 10.84375 -7.304688 10.429688 -8.320312 9.609375 -9.125 C 8.785156 -9.9375 7.769531 -10.34375 6.5625 -10.34375 Z M 3.65625 -10.34375 "/></g></g></g><g fill="#000000" fill-opacity="1"><g transform="translate(330.195536, 229.047041)"><g><path d="M 2.453125 -10.484375 C 3.703125 -11.660156 5.238281 -12.25 7.0625 -12.25 C 8.882812 -12.25 10.414062 -11.660156 11.65625 -10.484375 C 12.894531 -9.304688 13.515625 -7.84375 13.515625 -6.09375 C 13.515625 -4.351562 12.894531 -2.882812 11.65625 -1.6875 C 10.414062 -0.5 8.882812 0.09375 7.0625 0.09375 C 5.238281 0.09375 3.703125 -0.5 2.453125 -1.6875 C 1.210938 -2.882812 0.59375 -4.351562 0.59375 -6.09375 C 0.59375 -7.84375 1.210938 -9.304688 2.453125 -10.484375 Z M 7.078125 -10.40625 C 5.867188 -10.40625 4.832031 -9.988281 3.96875 -9.15625 C 3.113281 -8.320312 2.6875 -7.300781 2.6875 -6.09375 C 2.6875 -4.882812 3.117188 -3.859375 3.984375 -3.015625 C 4.847656 -2.179688 5.878906 -1.765625 7.078125 -1.765625 C 8.273438 -1.765625 9.296875 -2.179688 10.140625 -3.015625 C 10.984375 -3.859375 11.40625 -4.882812 11.40625 -6.09375 C 11.40625 -7.300781 10.984375 -8.320312 10.140625 -9.15625 C 9.296875 -9.988281 8.273438 -10.40625 7.078125 -10.40625 Z M 7.078125 -10.40625 "/></g></g></g></svg>