<svg xmlns="http://www.w3.org/2000/svg" xmlns:xlink="http://www.w3.org/1999/xlink" width="500" zoomAndPan="magnify" viewBox="0 0 375 374.999991" height="500" preserveAspectRatio="xMidYMid meet" version="1.0"><defs><g/><clipPath id="6d63658fa8"><path d="M 70.195312 83.636719 L 294.574219 83.636719 L 294.574219 272 L 70.195312 272 Z M 70.195312 83.636719 " clip-rule="nonzero"/></clipPath><clipPath id="e52b0fd7f3"><path d="M 288.824219 170.464844 L 287.050781 171.617188 L 286.171875 216.355469 C 217.039062 220.878906 148.839844 225.34375 80.40625 229.828125 L 80.40625 91.503906 C 109.757812 91.503906 138.328125 91.40625 166.878906 91.582031 C 173.355469 91.621094 176.882812 90.175781 174.796875 83.800781 L 70.96875 83.800781 L 70.96875 256.742188 C 102.269531 254.617188 132.515625 252.550781 162.921875 250.460938 L 162.921875 266.003906 C 157.695312 267.078125 153.03125 268.035156 148.351562 268.988281 L 148.839844 271.308594 C 173.683594 270.472656 198.296875 268.480469 222.90625 266.511719 L 222.828125 264.269531 L 209.335938 263.140625 L 209.335938 246.953125 C 237.867188 244.808594 265.890625 242.699219 294.363281 240.554688 C 294.363281 218.246094 294.5 197.164062 294.128906 176.101562 C 294.089844 174.191406 290.695312 172.339844 288.84375 170.464844 " clip-rule="nonzero"/></clipPath><clipPath id="423618c6a3"><path d="M 260 165.539062 L 279.988281 165.539062 L 279.988281 184.609375 L 260 184.609375 Z M 260 165.539062 " clip-rule="nonzero"/></clipPath><clipPath id="a876a29035"><path d="M 279.035156 175.109375 C 279.035156 180.316406 274.800781 184.527344 269.613281 184.527344 C 264.425781 184.527344 260.175781 180.316406 260.175781 175.109375 C 260.175781 169.902344 264.40625 165.6875 269.613281 165.6875 C 274.820312 165.6875 279.035156 169.902344 279.035156 175.109375 " clip-rule="nonzero"/></clipPath><clipPath id="5b79a01fa8"><path d="M 150 4 L 357 4 L 357 193.585938 L 150 193.585938 Z M 150 4 " clip-rule="nonzero"/></clipPath><clipPath id="b6d5a1655d"><path d="M 182.109375 11.605469 C 186.691406 11.605469 190.417969 15.328125 190.417969 19.914062 C 190.417969 24.496094 186.691406 28.21875 182.109375 28.21875 C 177.527344 28.21875 173.800781 24.496094 173.800781 19.914062 C 173.800781 15.328125 177.527344 11.605469 182.109375 11.605469 Z M 232.464844 69.582031 C 236.382812 69.582031 239.582031 72.761719 239.582031 76.703125 C 239.582031 80.640625 236.402344 83.800781 232.464844 83.800781 C 228.523438 83.800781 225.363281 80.621094 225.363281 76.703125 C 225.363281 72.78125 228.542969 69.582031 232.464844 69.582031 Z M 315.054688 95.011719 C 319.089844 95.011719 322.347656 98.289062 322.347656 102.308594 C 322.347656 106.324219 319.089844 109.601562 315.054688 109.601562 C 311.015625 109.601562 307.761719 106.34375 307.761719 102.308594 C 307.761719 98.269531 311.035156 95.011719 315.054688 95.011719 Z M 342.375 154.785156 C 346.785156 154.785156 350.371094 158.375 350.371094 162.78125 C 350.371094 167.191406 346.785156 170.777344 342.375 170.777344 C 337.96875 170.777344 334.378906 167.210938 334.378906 162.78125 C 334.378906 158.355469 337.96875 154.785156 342.375 154.785156 Z M 181.933594 4.757812 C 176.804688 4.757812 172.144531 7.683594 169.257812 13.066406 C 165.007812 20.984375 167.835938 27.886719 177.214844 33.816406 C 179.398438 35.203125 181.71875 37.738281 182.207031 40.117188 C 183.671875 47.078125 184.605469 54.195312 185.132812 61.296875 C 188.605469 108.058594 178.445312 151.472656 150.90625 193.089844 C 163.097656 188.175781 172.789062 184.625 182.207031 180.429688 C 213.058594 166.644531 244.632812 158.667969 277.160156 158.667969 C 291.164062 158.667969 305.34375 160.148438 319.714844 163.269531 C 323.363281 164.070312 327.203125 167.152344 329.523438 170.230469 C 333.015625 174.875 337.675781 177.488281 342.414062 177.488281 C 344.929688 177.488281 347.484375 176.746094 349.882812 175.1875 C 354.3125 172.320312 356.789062 167.289062 356.808594 162.257812 L 356.808594 162.082031 C 356.789062 159.46875 356.125 156.875 354.722656 154.570312 C 352.03125 150.164062 347.503906 147.921875 342.628906 147.921875 C 339.859375 147.921875 336.972656 148.644531 334.242188 150.085938 C 331.804688 151.375 328.667969 152.328125 325.859375 152.328125 C 325.214844 152.328125 324.589844 152.289062 323.984375 152.171875 C 308.054688 149.402344 292.140625 147.785156 276.207031 147.785156 C 261.8125 147.785156 247.402344 149.113281 233.011719 152.09375 L 210.464844 157.632812 C 236.753906 138.992188 265.285156 125.222656 295.007812 113.851562 C 297.347656 112.957031 299.511719 112.195312 301.734375 112.195312 C 303.78125 112.195312 305.886719 112.839844 308.285156 114.632812 C 310.335938 116.171875 312.636719 116.855469 314.9375 116.855469 C 319.753906 116.855469 324.628906 113.832031 327.320312 109.152344 C 331.203125 102.367188 329.25 93.746094 322.796875 89.28125 C 320.222656 87.484375 317.023438 86.550781 313.960938 86.550781 C 309.691406 86.550781 305.691406 88.382812 303.976562 92.324219 C 299.84375 101.839844 291.4375 102.910156 283.910156 106.539062 L 213.253906 141.214844 C 210.621094 142.519531 208.125 144.082031 204.710938 146.011719 C 214.425781 128.246094 223.316406 111.726562 232.5625 95.382812 C 233.847656 93.121094 236.578125 91.503906 238.9375 90.039062 C 247.089844 85.007812 249.839844 76.78125 245.589844 69.386719 C 242.683594 64.335938 237.964844 61.585938 232.992188 61.585938 C 230.511719 61.585938 227.976562 62.269531 225.597656 63.695312 C 217.933594 68.238281 216.082031 76.332031 220.605469 84.8125 C 221.523438 86.550781 223.179688 89.144531 222.558594 90.273438 L 187.902344 151.375 C 187.003906 150.90625 186.109375 150.417969 185.210938 149.949219 L 186.535156 145.484375 C 195.917969 114.339844 199.816406 82.765625 194.941406 50.316406 C 193.8125 42.867188 192.972656 34.734375 194.785156 27.636719 C 197.261719 17.980469 195.878906 9.613281 188.136719 6.144531 C 186.050781 5.207031 183.941406 4.757812 181.933594 4.757812 Z M 181.933594 4.757812 " clip-rule="nonzero"/></clipPath></defs><g clip-path="url(#6d63658fa8)"><g clip-path="url(#e52b0fd7f3)"><path fill="#ffffff" d="M 61.21875 -4.992188 L 366.375 -4.992188 L 366.375 282.214844 L 61.21875 282.214844 Z M 61.21875 -4.992188 " fill-opacity="1" fill-rule="nonzero"/></g></g><g clip-path="url(#423618c6a3)"><g clip-path="url(#a876a29035)"><path fill="#468f27" d="M 61.21875 -4.992188 L 366.375 -4.992188 L 366.375 282.214844 L 61.21875 282.214844 Z M 61.21875 -4.992188 " fill-opacity="1" fill-rule="nonzero"/></g></g><g clip-path="url(#5b79a01fa8)"><g clip-path="url(#b6d5a1655d)"><path fill="#7ed957" d="M 61.21875 -4.992188 L 366.375 -4.992188 L 366.375 282.214844 L 61.21875 282.214844 Z M 61.21875 -4.992188 " fill-opacity="1" fill-rule="nonzero"/></g></g><g fill="#7ed957" fill-opacity="1"><g transform="translate(59.764246, 329.065795)"><g><path d="M 24.859375 -6 L 10.640625 -6 L 8.265625 0 L -0.234375 0 L 13.796875 -32.53125 L 22.3125 -32.53125 L 36.015625 0 L 27.1875 0 Z M 22.4375 -12.265625 L 17.796875 -24.296875 L 13.0625 -12.265625 Z M 22.4375 -12.265625 "/></g></g></g><g fill="#7ed957" fill-opacity="1"><g transform="translate(95.54044, 329.065795)"><g><path d="M 3.25 -32.53125 L 17.421875 -32.53125 C 21.578125 -32.53125 24.800781 -31.546875 27.09375 -29.578125 C 29.382812 -27.609375 30.53125 -24.8125 30.53125 -21.1875 C 30.53125 -17.375 29.382812 -14.414062 27.09375 -12.3125 C 24.800781 -10.207031 21.578125 -9.15625 17.421875 -9.15625 L 11.53125 -9.15625 L 11.53125 0 L 3.25 0 Z M 11.53125 -26.015625 L 11.53125 -15.65625 L 17 -15.65625 C 18.832031 -15.65625 20.242188 -16.101562 21.234375 -17 C 22.222656 -17.90625 22.71875 -19.207031 22.71875 -20.90625 C 22.71875 -22.582031 22.222656 -23.851562 21.234375 -24.71875 C 20.242188 -25.582031 18.832031 -26.015625 17 -26.015625 Z M 11.53125 -26.015625 "/></g></g></g><g fill="#7ed957" fill-opacity="1"><g transform="translate(127.135001, 329.065795)"><g><path d="M 22.859375 0 L 18.03125 -9.15625 L 11.53125 -9.15625 L 11.53125 0 L 3.25 0 L 3.25 -32.53125 L 17.796875 -32.53125 C 22.097656 -32.53125 25.425781 -31.546875 27.78125 -29.578125 C 30.132812 -27.609375 31.3125 -24.8125 31.3125 -21.1875 C 31.3125 -16.164062 29.347656 -12.679688 25.421875 -10.734375 L 32.25 0 Z M 11.53125 -15.65625 L 17.796875 -15.65625 C 19.597656 -15.65625 20.992188 -16.101562 21.984375 -17 C 22.972656 -17.90625 23.46875 -19.207031 23.46875 -20.90625 C 23.46875 -22.582031 22.972656 -23.851562 21.984375 -24.71875 C 20.992188 -25.582031 19.597656 -26.015625 17.796875 -26.015625 L 11.53125 -26.015625 Z M 11.53125 -15.65625 "/></g></g></g><g fill="#7ed957" fill-opacity="1"><g transform="translate(160.773919, 329.065795)"><g><path d="M 28.71875 -26.015625 L 11.53125 -26.015625 L 11.53125 -19.5625 L 27.046875 -19.5625 L 27.046875 -13.0625 L 11.53125 -13.0625 L 11.53125 -6.5 L 29.234375 -6.5 L 29.234375 0 L 3.25 0 L 3.25 -32.53125 L 28.71875 -32.53125 Z M 28.71875 -26.015625 "/></g></g></g><g fill="#7ed957" fill-opacity="1"><g transform="translate(192.089703, 329.065795)"><g><path d="M 33.265625 0 L 25.96875 0 L 11.015625 -20.03125 L 11.015625 0 L 3.25 0 L 3.25 -32.53125 L 10.546875 -32.53125 L 25.5625 -12.453125 L 25.5625 -32.53125 L 33.265625 -32.53125 Z M 33.265625 0 "/></g></g></g><g fill="#7ed957" fill-opacity="1"><g transform="translate(228.60931, 329.065795)"><g><path d="M 3.25 -32.53125 L 17.234375 -32.53125 C 22.347656 -32.53125 26.507812 -31.023438 29.71875 -28.015625 C 32.925781 -25.015625 34.53125 -21.097656 34.53125 -16.265625 C 34.53125 -11.460938 32.898438 -7.550781 29.640625 -4.53125 C 26.390625 -1.507812 22.148438 0 16.921875 0 L 3.25 0 Z M 11.53125 -25.921875 L 11.53125 -6.59375 L 17.421875 -6.59375 C 19.960938 -6.59375 22.046875 -7.484375 23.671875 -9.265625 C 25.296875 -11.046875 26.109375 -13.363281 26.109375 -16.21875 C 26.109375 -19.070312 25.253906 -21.398438 23.546875 -23.203125 C 21.847656 -25.015625 19.679688 -25.921875 17.046875 -25.921875 Z M 11.53125 -25.921875 "/></g></g></g><g fill="#7ed957" fill-opacity="1"><g transform="translate(264.246126, 329.065795)"><g><path d="M 28.71875 -26.015625 L 11.53125 -26.015625 L 11.53125 -19.5625 L 27.046875 -19.5625 L 27.046875 -13.0625 L 11.53125 -13.0625 L 11.53125 -6.5 L 29.234375 -6.5 L 29.234375 0 L 3.25 0 L 3.25 -32.53125 L 28.71875 -32.53125 Z M 28.71875 -26.015625 "/></g></g></g><g fill="#ffffff" fill-opacity="1"><g transform="translate(63.031969, 357.961095)"><g><path d="M 1.71875 -13.03125 L 6.90625 -13.03125 C 8.539062 -13.03125 9.804688 -12.640625 10.703125 -11.859375 C 11.609375 -11.085938 12.0625 -9.992188 12.0625 -8.578125 C 12.0625 -7.097656 11.609375 -5.953125 10.703125 -5.140625 C 9.804688 -4.328125 8.539062 -3.921875 6.90625 -3.921875 L 3.90625 -3.921875 L 3.90625 0 L 1.71875 0 Z M 3.90625 -11.046875 L 3.90625 -5.90625 L 6.8125 -5.90625 C 8.90625 -5.90625 9.953125 -6.773438 9.953125 -8.515625 C 9.953125 -10.203125 8.90625 -11.046875 6.8125 -11.046875 Z M 3.90625 -11.046875 "/></g></g></g><g fill="#ffffff" fill-opacity="1"><g transform="translate(82.7505, 357.961095)"><g><path d="M 9.96875 0 L 7.59375 -3.9375 C 7.46875 -3.925781 7.269531 -3.921875 7 -3.921875 L 3.90625 -3.921875 L 3.90625 0 L 1.71875 0 L 1.71875 -13.03125 L 7 -13.03125 C 8.65625 -13.03125 9.941406 -12.640625 10.859375 -11.859375 C 11.785156 -11.085938 12.25 -9.992188 12.25 -8.578125 C 12.25 -7.535156 12.015625 -6.65625 11.546875 -5.9375 C 11.078125 -5.21875 10.410156 -4.691406 9.546875 -4.359375 L 12.46875 0 Z M 3.90625 -5.90625 L 7 -5.90625 C 9.101562 -5.90625 10.15625 -6.773438 10.15625 -8.515625 C 10.15625 -10.203125 9.101562 -11.046875 7 -11.046875 L 3.90625 -11.046875 Z M 3.90625 -5.90625 "/></g></g></g><g fill="#ffffff" fill-opacity="1"><g transform="translate(103.398837, 357.961095)"><g><path d="M 2.609375 -11.1875 C 3.941406 -12.445312 5.582031 -13.078125 7.53125 -13.078125 C 9.476562 -13.078125 11.113281 -12.445312 12.4375 -11.1875 C 13.769531 -9.925781 14.4375 -8.363281 14.4375 -6.5 C 14.4375 -4.644531 13.769531 -3.082031 12.4375 -1.8125 C 11.113281 -0.539062 9.476562 0.09375 7.53125 0.09375 C 5.582031 0.09375 3.941406 -0.539062 2.609375 -1.8125 C 1.285156 -3.082031 0.625 -4.644531 0.625 -6.5 C 0.625 -8.363281 1.285156 -9.925781 2.609375 -11.1875 Z M 7.5625 -11.109375 C 6.269531 -11.109375 5.160156 -10.664062 4.234375 -9.78125 C 3.316406 -8.894531 2.859375 -7.804688 2.859375 -6.515625 C 2.859375 -5.222656 3.320312 -4.125 4.25 -3.21875 C 5.175781 -2.320312 6.273438 -1.875 7.546875 -1.875 C 8.828125 -1.875 9.921875 -2.320312 10.828125 -3.21875 C 11.734375 -4.125 12.1875 -5.222656 12.1875 -6.515625 C 12.1875 -7.804688 11.734375 -8.894531 10.828125 -9.78125 C 9.921875 -10.664062 8.832031 -11.109375 7.5625 -11.109375 Z M 7.5625 -11.109375 "/></g></g></g><g fill="#ffffff" fill-opacity="1"><g transform="translate(125.665017, 357.961095)"><g><path d="M 10.625 -6.40625 L 12.546875 -6.40625 L 12.546875 -1.59375 C 11.867188 -1.09375 11.070312 -0.6875 10.15625 -0.375 C 9.25 -0.0625 8.359375 0.09375 7.484375 0.09375 C 5.554688 0.09375 3.929688 -0.539062 2.609375 -1.8125 C 1.285156 -3.082031 0.625 -4.644531 0.625 -6.5 C 0.625 -8.363281 1.296875 -9.925781 2.640625 -11.1875 C 3.984375 -12.445312 5.640625 -13.078125 7.609375 -13.078125 C 8.523438 -13.078125 9.425781 -12.910156 10.3125 -12.578125 C 11.207031 -12.253906 11.972656 -11.816406 12.609375 -11.265625 L 11.375 -9.640625 C 10.300781 -10.628906 9.046875 -11.125 7.609375 -11.125 C 6.285156 -11.125 5.160156 -10.675781 4.234375 -9.78125 C 3.316406 -8.894531 2.859375 -7.804688 2.859375 -6.515625 C 2.859375 -5.210938 3.320312 -4.113281 4.25 -3.21875 C 5.175781 -2.320312 6.300781 -1.875 7.625 -1.875 C 8.632812 -1.875 9.632812 -2.171875 10.625 -2.765625 Z M 10.625 -6.40625 "/></g></g></g><g fill="#ffffff" fill-opacity="1"><g transform="translate(146.796839, 357.961095)"><g><path d="M 9.96875 0 L 7.59375 -3.9375 C 7.46875 -3.925781 7.269531 -3.921875 7 -3.921875 L 3.90625 -3.921875 L 3.90625 0 L 1.71875 0 L 1.71875 -13.03125 L 7 -13.03125 C 8.65625 -13.03125 9.941406 -12.640625 10.859375 -11.859375 C 11.785156 -11.085938 12.25 -9.992188 12.25 -8.578125 C 12.25 -7.535156 12.015625 -6.65625 11.546875 -5.9375 C 11.078125 -5.21875 10.410156 -4.691406 9.546875 -4.359375 L 12.46875 0 Z M 3.90625 -5.90625 L 7 -5.90625 C 9.101562 -5.90625 10.15625 -6.773438 10.15625 -8.515625 C 10.15625 -10.203125 9.101562 -11.046875 7 -11.046875 L 3.90625 -11.046875 Z M 3.90625 -5.90625 "/></g></g></g><g fill="#ffffff" fill-opacity="1"><g transform="translate(167.445171, 357.961095)"><g><path d="M 10.125 -2.9375 L 3.546875 -2.9375 L 2.3125 0 L 0.015625 0 L 5.765625 -13.03125 L 8.015625 -13.03125 L 13.71875 0 L 11.375 0 Z M 9.28125 -4.890625 L 6.828125 -10.6875 L 4.375 -4.890625 Z M 9.28125 -4.890625 "/></g></g></g><g fill="#ffffff" fill-opacity="1"><g transform="translate(188.372435, 357.961095)"><g><path d="M 15.484375 0 L 13.453125 0 L 13.4375 -9.734375 L 9.328125 -1.359375 L 7.890625 -1.359375 L 3.78125 -9.734375 L 3.78125 0 L 1.71875 0 L 1.71875 -13.03125 L 4.3125 -13.03125 L 8.609375 -4.375 L 12.890625 -13.03125 L 15.484375 -13.03125 Z M 15.484375 0 "/></g></g></g><g fill="#ffffff" fill-opacity="1"><g transform="translate(212.777138, 357.961095)"><g><path d="M 10.125 -2.9375 L 3.546875 -2.9375 L 2.3125 0 L 0.015625 0 L 5.765625 -13.03125 L 8.015625 -13.03125 L 13.71875 0 L 11.375 0 Z M 9.28125 -4.890625 L 6.828125 -10.6875 L 4.375 -4.890625 Z M 9.28125 -4.890625 "/></g></g></g><g fill="#ffffff" fill-opacity="1"><g transform="translate(233.704402, 357.961095)"><g><path d="M 13.015625 0 L 10.84375 0 L 3.90625 -9.34375 L 3.90625 0 L 1.71875 0 L 1.71875 -13.03125 L 3.875 -13.03125 L 10.84375 -3.671875 L 10.84375 -13.03125 L 13.015625 -13.03125 Z M 13.015625 0 "/></g></g></g><g fill="#ffffff" fill-opacity="1"><g transform="translate(255.635851, 357.961095)"><g><path d="M 1.71875 -13.03125 L 7.046875 -13.03125 C 8.992188 -13.03125 10.601562 -12.414062 11.875 -11.1875 C 13.15625 -9.957031 13.796875 -8.398438 13.796875 -6.515625 C 13.796875 -4.628906 13.15625 -3.070312 11.875 -1.84375 C 10.59375 -0.613281 8.96875 0 7 0 L 1.71875 0 Z M 3.90625 -11.046875 L 3.90625 -1.96875 L 7.109375 -1.96875 C 8.390625 -1.96875 9.453125 -2.390625 10.296875 -3.234375 C 11.148438 -4.085938 11.578125 -5.171875 11.578125 -6.484375 C 11.578125 -7.804688 11.140625 -8.894531 10.265625 -9.75 C 9.390625 -10.613281 8.304688 -11.046875 7.015625 -11.046875 Z M 3.90625 -11.046875 "/></g></g></g><g fill="#ffffff" fill-opacity="1"><g transform="translate(277.25117, 357.961095)"><g><path d="M 2.609375 -11.1875 C 3.941406 -12.445312 5.582031 -13.078125 7.53125 -13.078125 C 9.476562 -13.078125 11.113281 -12.445312 12.4375 -11.1875 C 13.769531 -9.925781 14.4375 -8.363281 14.4375 -6.5 C 14.4375 -4.644531 13.769531 -3.082031 12.4375 -1.8125 C 11.113281 -0.539062 9.476562 0.09375 7.53125 0.09375 C 5.582031 0.09375 3.941406 -0.539062 2.609375 -1.8125 C 1.285156 -3.082031 0.625 -4.644531 0.625 -6.5 C 0.625 -8.363281 1.285156 -9.925781 2.609375 -11.1875 Z M 7.5625 -11.109375 C 6.269531 -11.109375 5.160156 -10.664062 4.234375 -9.78125 C 3.316406 -8.894531 2.859375 -7.804688 2.859375 -6.515625 C 2.859375 -5.222656 3.320312 -4.125 4.25 -3.21875 C 5.175781 -2.320312 6.273438 -1.875 7.546875 -1.875 C 8.828125 -1.875 9.921875 -2.320312 10.828125 -3.21875 C 11.734375 -4.125 12.1875 -5.222656 12.1875 -6.515625 C 12.1875 -7.804688 11.734375 -8.894531 10.828125 -9.78125 C 9.921875 -10.664062 8.832031 -11.109375 7.5625 -11.109375 Z M 7.5625 -11.109375 "/></g></g></g></svg>