<svg xmlns="http://www.w3.org/2000/svg" xmlns:xlink="http://www.w3.org/1999/xlink" width="500" zoomAndPan="magnify" viewBox="0 0 375 374.999991" height="500" preserveAspectRatio="xMidYMid meet" version="1.0"><defs><clipPath id="e73fc7dd14"><path d="M 15 121.238281 L 284.746094 121.238281 L 284.746094 348 L 15 348 Z M 15 121.238281 " clip-rule="nonzero"/></clipPath><clipPath id="72a9e8a292"><path d="M 277.8125 225.894531 L 275.675781 227.28125 L 274.617188 281.207031 C 191.285156 286.660156 109.082031 292.042969 26.597656 297.449219 L 26.597656 130.71875 C 61.976562 130.71875 96.414062 130.597656 130.828125 130.8125 C 138.628906 130.859375 142.886719 129.117188 140.371094 121.433594 L 15.21875 121.433594 L 15.21875 329.890625 C 52.949219 327.328125 89.40625 324.835938 126.054688 322.320312 L 126.054688 341.054688 C 119.753906 342.347656 114.136719 343.5 108.496094 344.652344 L 109.082031 347.449219 C 139.03125 346.4375 168.695312 344.039062 198.359375 341.667969 L 198.265625 338.964844 L 182 337.601562 L 182 318.089844 C 216.390625 315.503906 250.171875 312.964844 284.488281 310.378906 C 284.488281 283.488281 284.65625 258.078125 284.207031 232.6875 C 284.160156 230.386719 280.070312 228.152344 277.835938 225.894531 " clip-rule="nonzero"/></clipPath><clipPath id="cbd132e43f"><path d="M 243 220 L 267 220 L 267 242.945312 L 243 242.945312 Z M 243 220 " clip-rule="nonzero"/></clipPath><clipPath id="7681cf0e49"><path d="M 266.015625 231.492188 C 266.015625 237.765625 260.914062 242.84375 254.660156 242.84375 C 248.40625 242.84375 243.28125 237.765625 243.28125 231.492188 C 243.28125 225.214844 248.382812 220.136719 254.660156 220.136719 C 260.9375 220.136719 266.015625 225.214844 266.015625 231.492188 " clip-rule="nonzero"/></clipPath><clipPath id="10274ff686"><path d="M 111 26 L 360 26 L 360 253.761719 L 111 253.761719 Z M 111 26 " clip-rule="nonzero"/></clipPath><clipPath id="0dd676880c"><path d="M 149.183594 34.410156 C 154.710938 34.410156 159.199219 38.898438 159.199219 44.421875 C 159.199219 49.949219 154.710938 54.4375 149.183594 54.4375 C 143.660156 54.4375 139.171875 49.949219 139.171875 44.421875 C 139.171875 38.898438 143.660156 34.410156 149.183594 34.410156 Z M 209.878906 104.296875 C 214.605469 104.296875 218.460938 108.125 218.460938 112.875 C 218.460938 117.625 214.628906 121.433594 209.878906 121.433594 C 205.132812 121.433594 201.324219 117.601562 201.324219 112.875 C 201.324219 108.152344 205.15625 104.296875 209.878906 104.296875 Z M 309.429688 134.949219 C 314.296875 134.949219 318.222656 138.898438 318.222656 143.738281 C 318.222656 148.582031 314.296875 152.53125 309.429688 152.53125 C 304.566406 152.53125 300.640625 148.605469 300.640625 143.738281 C 300.640625 138.875 304.589844 134.949219 309.429688 134.949219 Z M 342.363281 206.996094 C 347.675781 206.996094 352 211.320312 352 216.632812 C 352 221.945312 347.675781 226.273438 342.363281 226.273438 C 337.050781 226.273438 332.726562 221.96875 332.726562 216.632812 C 332.726562 211.296875 337.050781 206.996094 342.363281 206.996094 Z M 148.972656 26.160156 C 142.792969 26.160156 137.171875 29.683594 133.695312 36.171875 C 128.570312 45.714844 131.976562 54.039062 143.285156 61.183594 C 145.917969 62.851562 148.714844 65.910156 149.300781 68.777344 C 151.066406 77.167969 152.195312 85.75 152.828125 94.304688 C 157.011719 150.675781 144.765625 203 111.574219 253.164062 C 126.265625 247.238281 137.949219 242.960938 149.300781 237.90625 C 186.492188 221.289062 224.546875 211.675781 263.757812 211.675781 C 280.636719 211.675781 297.722656 213.460938 315.046875 217.222656 C 319.445312 218.183594 324.074219 221.898438 326.871094 225.613281 C 331.082031 231.207031 336.699219 234.359375 342.410156 234.359375 C 345.441406 234.359375 348.523438 233.464844 351.414062 231.585938 C 356.75 228.128906 359.734375 222.0625 359.757812 216 L 359.757812 215.789062 C 359.734375 212.636719 358.9375 209.511719 357.242188 206.738281 C 354 201.425781 348.546875 198.722656 342.667969 198.722656 C 339.332031 198.722656 335.851562 199.589844 332.5625 201.332031 C 329.621094 202.882812 325.839844 204.035156 322.453125 204.035156 C 321.675781 204.035156 320.925781 203.988281 320.195312 203.847656 C 300.992188 200.507812 281.808594 198.558594 262.605469 198.558594 C 245.257812 198.558594 227.886719 200.15625 210.539062 203.753906 L 183.363281 210.429688 C 215.050781 187.957031 249.441406 171.359375 285.265625 157.65625 C 288.085938 156.574219 290.695312 155.65625 293.375 155.65625 C 295.84375 155.65625 298.382812 156.433594 301.273438 158.597656 C 303.742188 160.453125 306.515625 161.277344 309.289062 161.277344 C 315.097656 161.277344 320.972656 157.632812 324.214844 151.992188 C 328.894531 143.808594 326.542969 133.421875 318.761719 128.039062 C 315.660156 125.875 311.804688 124.746094 308.113281 124.746094 C 302.964844 124.746094 298.148438 126.957031 296.078125 131.703125 C 291.09375 143.175781 280.964844 144.46875 271.890625 148.839844 L 186.726562 190.636719 C 183.550781 192.210938 180.542969 194.089844 176.429688 196.417969 C 188.136719 175.003906 198.855469 155.09375 209.996094 135.394531 C 211.546875 132.667969 214.839844 130.71875 217.683594 128.953125 C 227.507812 122.890625 230.824219 112.96875 225.699219 104.058594 C 222.195312 97.972656 216.507812 94.65625 210.515625 94.65625 C 207.527344 94.65625 204.472656 95.480469 201.605469 97.195312 C 192.367188 102.671875 190.132812 112.429688 195.585938 122.652344 C 196.691406 124.746094 198.691406 127.871094 197.9375 129.234375 L 156.167969 202.882812 C 155.085938 202.320312 154.003906 201.730469 152.921875 201.167969 L 154.519531 195.785156 C 165.828125 158.242188 170.53125 120.1875 164.652344 81.070312 C 163.289062 72.089844 162.277344 62.289062 164.464844 53.730469 C 167.449219 42.097656 165.78125 32.011719 156.449219 27.828125 C 153.933594 26.699219 151.394531 26.160156 148.972656 26.160156 Z M 148.972656 26.160156 " clip-rule="nonzero"/></clipPath></defs><g clip-path="url(#e73fc7dd14)"><g clip-path="url(#72a9e8a292)"><path fill="#000000" d="M 3.46875 14.40625 L 371.292969 14.40625 L 371.292969 360.59375 L 3.46875 360.59375 Z M 3.46875 14.40625 " fill-opacity="1" fill-rule="nonzero"/></g></g><g clip-path="url(#cbd132e43f)"><g clip-path="url(#7681cf0e49)"><path fill="#468f27" d="M 3.46875 14.40625 L 371.292969 14.40625 L 371.292969 360.59375 L 3.46875 360.59375 Z M 3.46875 14.40625 " fill-opacity="1" fill-rule="nonzero"/></g></g><g clip-path="url(#10274ff686)"><g clip-path="url(#0dd676880c)"><path fill="#7ed957" d="M 3.46875 14.40625 L 371.292969 14.40625 L 371.292969 360.59375 L 3.46875 360.59375 Z M 3.46875 14.40625 " fill-opacity="1" fill-rule="nonzero"/></g></g></svg>